HIERARCHY
ROOT ui
{
	 OFFSET 0 0 0
	 CHANNELS 3 XPosition YPosition Z Position
	 EndSite
	 {
	 OFFSET 0 -1 0
	 }
}
ROOT li
{
	 OFFSET 0 0 0
	 CHANNELS 3 XPosition YPosition Z Position
	 EndSite
	 {
	 OFFSET 0 -1 0
	 }
}
ROOT ul
{
	 OFFSET 0 0 0
	 CHANNELS 3 XPosition YPosition Z Position
	 EndSite
	 {
	 OFFSET 0 -1 0
	 }
}
ROOT ll
{
	 OFFSET 0 0 0
	 CHANNELS 3 XPosition YPosition Z Position
	 EndSite
	 {
	 OFFSET 0 -1 0
	 }
}
ROOT tt
{
	 OFFSET 0 0 0
	 CHANNELS 3 XPosition YPosition Z Position
	 EndSite
	 {
	 OFFSET 0 -1 0
	 }
}
ROOT tb
{
	 OFFSET 0 0 0
	 CHANNELS 3 XPosition YPosition Z Position
	 EndSite
	 {
	 OFFSET 0 -1 0
	 }
}
ROOT td
{
	 OFFSET 0 0 0
	 CHANNELS 3 XPosition YPosition Z Position
	 EndSite
	 {
	 OFFSET 0 -1 0
	 }
}
ROOT v
{
	 OFFSET 0 0 0
	 CHANNELS 3 XPosition YPosition Z Position
	 EndSite
	 {
	 OFFSET 0 -1 0
	 }
}
ROOT bn
{
	 OFFSET 0 0 0
	 CHANNELS 3 XPosition YPosition Z Position
	 EndSite
	 {
	 OFFSET 0 -1 0
	 }
}
MOTION
Frames: 10
Frame Time: 0.002
0.002682054042816162	-9.284030199050903E-4	0		0.4764363708496094	-2.37274560546875	0		-1.023650390625	-0.02269291305541992	0		-0.7736400756835937	-2.287834716796875	0		1.6844677734375	-0.616024169921875	0		3.38422216796875	-0.3112688293457031	0		4.779017578125	-0.2528949127197266	0		5.5764677734375	0.11562322235107422	0		-0.16202503967285156	5.97946044921875	0		
-0.04958620834350586	5.516999959945679E-4	0		0.4427250061035156	-2.38155810546875	0		-1.098919921875	-0.020796506881713868	0		-0.7603071899414062	-2.294044921875	0		1.647163330078125	-0.6109529418945312	0		3.40283447265625	-0.3171022644042969	0		4.78867431640625	-0.25580889892578124	0		5.57719921875	0.11470964050292969	0		-0.15951162719726564	5.97831201171875	0		
0.008133644104003907	0.001702204942703247	0		0.4901776123046875	-2.376351318359375	0		-1.0022667846679687	-0.024981559753417967	0		-0.8037264404296875	-2.278569580078125	0		1.64778173828125	-0.6113330078125	0		3.38961474609375	-0.30754583740234376	0		4.79241259765625	-0.2506437225341797	0		5.5829990234375	0.12074550628662109	0		-0.1239464111328125	5.9837568359375	0		
-0.044188472747802736	0.0031937479972839354	0		0.4546712036132812	-2.365132080078125	0		-1.0115955810546875	-0.023889688491821288	0		-0.7684227294921875	-2.28405712890625	0		1.6893365478515625	-0.61421044921875	0		3.38421240234375	-0.31006851196289065	0		4.78406689453125	-0.24931033325195312	0		5.59267529296875	0.11975548553466797	0		-0.12350225830078125	5.984625	0		
0.009401310920715332	0.0013830000162124633	0		0.48882192993164064	-2.378766845703125	0		-1.0209793701171874	-0.02279772186279297	0		-0.76809765625	-2.284119384765625	0		1.64297021484375	-0.60599072265625	0		3.393866455078125	-0.3037539367675781	0		4.78464208984375	-0.25005535888671876	0		5.58920947265625	0.11196134948730468	0		-0.0871133804321289	5.98804736328125	0		
-0.047081092834472656	-5.3006000816822054E-5	0		0.45321261596679685	-2.36852294921875	0		-1.0145072021484376	-0.027905248641967775	0		-0.7718743286132812	-2.288130859375	0		1.6872962646484375	-0.6178838500976562	0		3.365384033203125	-0.30293423461914065	0		4.7851513671875	-0.2507610321044922	0		5.58976025390625	0.11116238403320312	0		-0.12092853546142578	5.98434619140625	0		
0.00636426591873169	-0.001862318992614746	0		0.46231683349609376	-2.376828369140625	0		-1.0040614013671876	-0.029065303802490235	0		-0.7946702270507813	-2.28889892578125	0		1.6497581787109374	-0.6127283935546874	0		3.3797998046875	-0.3046183776855469	0		4.7804853515625	-0.259357421875	0		5.590234375	0.11041505432128906	0		-0.11883213806152344	5.98320361328125	0		
-0.035108753204345707	0.009538867950439452	0		0.47744915771484375	-2.378199462890625	0		-0.99559228515625	-0.02220138931274414	0		-0.742595947265625	-2.29561669921875	0		1.6592200927734375	-0.6021422119140625	0		3.40399755859375	-0.3173942565917969	0		4.78799560546875	-0.24805787658691406	0		5.5898203125	0.12473574066162109	0		-0.14995181274414063	5.9754912109375	0		
0.011090798377990723	8.287730216979981E-4	0		0.482653564453125	-2.369430419921875	0		-1.0152487182617187	-0.01897643852233887	0		-0.7643175048828125	-2.281389892578125	0		1.6533812255859375	-0.6093378295898437	0		3.388571044921875	-0.29462246704101563	0		4.7793046875	-0.2465002136230469	0		5.58603466796875	0.11615702819824218	0		-0.08294137573242187	5.98753271484375	0		
-0.04165974044799805	0.0024025800228118896	0		0.48956146240234377	-2.379670654296875	0		-1.0190696411132814	-0.022952171325683595	0		-0.7673109741210937	-2.284399169921875	0		1.64458984375	-0.607468017578125	0		3.371547607421875	-0.31278961181640624	0		4.7864384765625	-0.2530928497314453	0		5.58118603515625	0.10865365600585937	0		-0.11726765441894531	5.9838818359375	0		
